#!OML:ASF E:\Steps\Project 1\Capture day 1\Session 2\Subject.ASF
:FULLY-SPECIFIED
:DEGREES
95
root 7.14469 16.2869 31.5916 -154.34 -0.680772 177.705
lowerback -28.5985 -1.39532 -7.39967
upperback -1.79314 -0.102819 -0.636545
thorax 13.0898 -0.757528 3.22559
lowerneck -5.87543 -3.36935 -1.97698
upperneck 9.03409 -5.30042 6.95596
head 3.898 -2.45869 2.15795
rclavicle 2.13694e-015 -2.90226e-014
rhumerus -39.6323 -19.5972 -77.8388
rradius 34.3807
rwrist -3.24246
rhand -5.725 -53.0541
rfingers 7.12502
rthumb 20.0967 -82.0347
lclavicle 2.13694e-015 -2.90226e-014
lhumerus -31.1866 10.844 78.4023
lradius 21.7878
lwrist -4.69976
lhand -21.2074 -13.506
lfingers 7.12502
lthumb 5.17411 16.4109
rfemur -22.6679 4.61593 20.7335
rtibia 5.83368
rfoot -18.7395 -6.16764
rtoes -28.1172
lfemur -24.3889 -10.0631 -20.2372
ltibia 9.87453
lfoot -8.63399 -0.500482
ltoes -29.1466
96
root 7.14988 16.2864 31.596 -154.239 -0.690007 177.701
lowerback -28.6531 -1.41066 -7.45272
upperback -1.78584 -0.102489 -0.631658
thorax 13.1222 -0.762255 3.25867
lowerneck -6.54285 -3.45852 -1.68995
upperneck 9.70695 -5.43893 6.47329
head 4.19972 -2.51288 1.94004
rclavicle -8.29926e-015 1.63003e-014
rhumerus -39.542 -19.6691 -77.8215
rradius 34.2611
rwrist -3.18867
rhand -5.71304 -52.9718
rfingers 7.12502
rthumb 20.1082 -81.9512
lclavicle -8.29926e-015 1.63003e-014
lhumerus -31.1192 10.9409 78.364
lradius 21.6813
lwrist -4.71569
lhand -21.3148 -13.4368
lfingers 7.12502
lthumb 5.07043 16.4826
rfemur -22.8186 4.57421 20.7824
rtibia 5.86058
rfoot -18.7117 -6.11284
rtoes -27.8714
lfemur -24.5349 -9.91931 -20.2235
ltibia 9.89041
lfoot -8.55043 -0.639737
ltoes -29.2391
97
root 7.15243 16.2862 31.5955 -154.28 -0.679641 177.712
lowerback -28.6205 -1.40887 -7.47111
upperback -1.75136 -0.0891591 -0.622494
thorax 13.1455 -0.756025 3.2846
lowerneck -5.90322 -3.24614 -2.24353
upperneck 9.00237 -5.15405 7.34518
head 3.90278 -2.37992 2.32783
rclavicle 1.3418e-015 -3.18055e-014
rhumerus -39.5202 -19.6746 -77.8212
rradius 34.1833
rwrist -3.09814
rhand -5.89215 -53.0137
rfingers 7.12502
rthumb 19.936 -82.0111
lclavicle 1.3418e-015 -3.18055e-014
lhumerus -31.087 11.04 78.343
lradius 21.5744
lwrist -4.68548
lhand -21.4259 -13.4089
lfingers 7.12502
lthumb 4.96311 16.5129
rfemur -22.7676 4.64845 20.7895
rtibia 5.82519
rfoot -18.6869 -6.18673
rtoes -27.9393
lfemur -24.48 -9.97389 -20.1936
ltibia 9.88335
lfoot -8.53893 -0.591372
ltoes -29.1412
98
root 7.15322 16.2858 31.5949 -154.324 -0.680053 177.696
lowerback -28.571 -1.40558 -7.48252
upperback -1.72207 -0.0765705 -0.628406
thorax 13.1552 -0.749084 3.29034
lowerneck -6.15525 -3.22318 -2.24588
upperneck 9.26484 -5.14048 7.32108
head 4.02322 -2.36486 2.31613
rclavicle -3.72721e-015 3.10104e-014
rhumerus -39.5079 -19.6135 -77.8555
rradius 34.1489
rwrist -3.12723
rhand -6.19956 -53.4242
rfingers 7.12502
rthumb 19.6405 -82.4521
lclavicle -3.72721e-015 3.10104e-014
lhumerus -31.0725 11.0907 78.3412
lradius 21.5053
lwrist -4.69787
lhand -21.3029 -13.7136
lfingers 7.12502
lthumb 5.08188 16.2055
rfemur -22.701 4.68104 20.7727
rtibia 5.78989
rfoot -18.6661 -6.21999
rtoes -28.1396
lfemur -24.401 -10.0679 -20.2042
ltibia 9.84805
lfoot -8.52452 -0.528945
ltoes -29.0605
99
root 7.15494 16.2853 31.5948 -154.35 -0.731447 177.769
lowerback -28.5363 -1.39601 -7.41156
upperback -1.69916 -0.0847315 -0.604823
thorax 13.1682 -0.747303 3.27577
lowerneck -6.41624 -3.22636 -2.20822
upperneck 9.48921 -5.15789 7.26404
head 4.13356 -2.36512 2.28615
rclavicle 1.59028e-015 -2.0276e-014
rhumerus -39.5325 -19.5402 -77.8693
rradius 34.1554
rwrist -3.29737
rhand -6.31687 -53.7534
rfingers 7.12502
rthumb 19.5277 -82.7927
lclavicle 1.59028e-015 -2.0276e-014
lhumerus -31.0792 11.1923 78.3044
lradius 21.4478
lwrist -4.83287
lhand -21.0831 -13.9157
lfingers 7.12502
lthumb 5.29414 15.9981
rfemur -22.6658 4.75675 20.8667
rtibia 5.80834
rfoot -18.6872 -6.2845
rtoes -28.138
lfemur -24.3669 -10.074 -20.0972
ltibia 9.82022
lfoot -8.56781 -0.505619
ltoes -28.868
100
root 7.15757 16.2835 31.5945 -154.342 -0.762429 177.835
lowerback -28.5664 -1.38393 -7.36473
upperback -1.69277 -0.0824395 -0.583536
thorax 13.1901 -0.74441 3.27423
lowerneck -6.26548 -3.23909 -2.2669
upperneck 9.34433 -5.17156 7.36469
head 4.06904 -2.37545 2.32882
rclavicle -4.27387e-015 -4.77083e-015
rhumerus -39.5979 -19.678 -77.7656
rradius 34.0742
rwrist -3.2636
rhand -5.99941 -53.4347
rfingers 7.12502
rthumb 19.8329 -82.4428
lclavicle -4.27387e-015 -4.77083e-015
lhumerus -31.1077 11.3227 78.2607
lradius 21.3801
lwrist -4.94108
lhand -20.9315 -13.6358
lfingers 7.12502
lthumb 5.44048 16.2743
rfemur -22.6942 4.78127 20.9523
rtibia 5.87508
rfoot -18.7144 -6.3016
rtoes -27.9461
lfemur -24.3829 -10.0396 -20.0008
ltibia 9.8285
lfoot -8.64491 -0.477395
ltoes -28.8935
101
root 7.15969 16.2826 31.5942 -154.434 -0.80473 177.791
lowerback -28.4704 -1.4005 -7.40533
upperback -1.67886 -0.0910015 -0.602823
thorax 13.1624 -0.747357 3.27373
lowerneck -6.12551 -3.29595 -2.18947
upperneck 9.23841 -5.2466 7.33299
head 4.01455 -2.41678 2.3049
rclavicle 5.76476e-015 1.59028e-015
rhumerus -39.6739 -20.0211 -77.5522
rradius 33.8642
rwrist -2.82324
rhand -5.76461 -52.9335
rfingers 7.12502
rthumb 20.0586 -81.9181
lclavicle 5.76476e-015 1.59028e-015
lhumerus -31.16 11.3121 78.2364
lradius 21.3356
lwrist -4.90475
lhand -20.8594 -13.4816
lfingers 7.12502
lthumb 5.51007 16.4267
rfemur -22.5509 4.7563 20.9234
rtibia 5.78946
rfoot -18.7125 -6.36206
rtoes -27.8447
lfemur -24.2805 -10.0368 -20.0604
ltibia 9.82017
lfoot -8.56986 -0.558571
ltoes -28.7773
102
root 7.16178 16.2834 31.595 -154.547 -0.828751 177.777
lowerback -28.3281 -1.40006 -7.40103
upperback -1.64891 -0.0891455 -0.633769
thorax 13.1314 -0.741229 3.24135
lowerneck -6.15599 -3.35264 -2.0046
upperneck 9.2186 -5.33371 7.2613
head 4.01161 -2.45716 2.24734
rclavicle -5.46658e-016 -6.75868e-015
rhumerus -39.7366 -20.4359 -77.2863
rradius 33.6331
rwrist -2.20986
rhand -5.89148 -52.455
rfingers 7.12502
rthumb 19.9367 -81.4523
lclavicle -5.46658e-016 -6.75868e-015
lhumerus -31.1968 11.2011 78.1944
lradius 21.3162
lwrist -4.83234
lhand -20.8376 -13.5348
lfingers 7.12502
lthumb 5.53111 16.373
rfemur -22.3772 4.82437 20.91
rtibia 5.66653
rfoot -18.6747 -6.47047
rtoes -27.8937
lfemur -24.1664 -10.0286 -20.0819
ltibia 9.81285
lfoot -8.49471 -0.634306
ltoes -28.7839
